<svg width="91" height="40" viewBox="0 0 91 40" fill="none" xmlns="http://www.w3.org/2000/svg">
<path d="M21.5025 39.4627C20.7689 39.501 20.0353 39.388 19.3457 39.1308C18.656 38.8735 18.0246 38.4772 17.4892 37.9655C16.9538 37.4538 16.5253 36.8373 16.2298 36.1531C15.9342 35.4688 15.7776 34.7309 15.7692 33.9835C15.7717 33.2343 15.9243 32.4934 16.2179 31.8064C16.5114 31.1193 16.9396 30.5005 17.4763 29.9876C18.0129 29.4747 18.6467 29.0785 19.339 28.8235C20.0313 28.5685 20.7675 28.4598 21.5025 28.5042C22.2372 28.464 22.9723 28.5754 23.6636 28.8318C24.3548 29.0882 24.988 29.4843 25.5249 29.9961C26.0619 30.508 26.4915 31.1251 26.7879 31.8103C27.0844 32.4956 27.2414 33.2348 27.2498 33.9835C27.1988 35.4846 26.5653 36.904 25.4882 37.9309C24.411 38.9578 22.9779 39.5086 21.5025 39.4627ZM21.5025 31.1729C21.1412 31.1682 20.7829 31.2395 20.45 31.3824C20.117 31.5253 19.8167 31.7367 19.5679 32.0033C19.319 32.2698 19.1269 32.5858 19.0037 32.9314C18.8805 33.2771 18.8289 33.6449 18.852 34.0118C18.8289 34.3787 18.8805 34.7466 19.0037 35.0922C19.1269 35.4378 19.319 35.7539 19.5679 36.0204C19.8167 36.287 20.117 36.4983 20.45 36.6412C20.7829 36.7841 21.1412 36.8554 21.5025 36.8508C21.8597 36.8497 22.2129 36.774 22.5402 36.6284C22.8675 36.4827 23.1618 36.2702 23.4051 36.0041C23.6483 35.7379 23.8352 35.4237 23.9542 35.081C24.0733 34.7383 24.1219 34.3744 24.0971 34.0118C24.1219 33.6492 24.0733 33.2853 23.9542 32.9426C23.8352 32.5999 23.6483 32.2857 23.4051 32.0196C23.1618 31.7534 22.8675 31.5409 22.5402 31.3953C22.2129 31.2496 21.8597 31.1739 21.5025 31.1729ZM47.2676 39.122V28.8024C47.2644 28.7658 47.2488 28.7315 47.2233 28.7056C47.1978 28.6796 47.1641 28.6636 47.1281 28.6604H44.3382C44.3022 28.6636 44.2685 28.6796 44.243 28.7056C44.2175 28.7315 44.2019 28.7658 44.1987 28.8024V39.0652C44.2019 39.1017 44.2175 39.1361 44.243 39.162C44.2685 39.188 44.3022 39.204 44.3382 39.2072H47.1281C47.1641 39.204 47.1978 39.188 47.2233 39.162C47.2488 39.1361 47.2644 39.1017 47.2676 39.0652M64.2026 39.4058C63.469 39.4441 62.7354 39.3313 62.0457 39.074C61.3561 38.8167 60.7246 38.4203 60.1892 37.9086C59.6538 37.397 59.2255 36.7805 58.93 36.0963C58.6344 35.412 58.4777 34.674 58.4692 33.9267C58.4717 33.1775 58.6244 32.4367 58.9179 31.7496C59.2115 31.0625 59.6397 30.4436 60.1763 29.9307C60.713 29.4178 61.3469 29.0218 62.0392 28.7667C62.7315 28.5117 63.4676 28.4031 64.2026 28.4475C64.9373 28.4072 65.6724 28.5187 66.3636 28.7751C67.0549 29.0314 67.6881 29.4274 68.225 29.9393C68.762 30.4512 69.1916 31.0684 69.488 31.7536C69.7844 32.4388 69.9415 33.178 69.9498 33.9267C69.9415 34.6753 69.7844 35.4145 69.488 36.0997C69.1916 36.785 68.762 37.4021 68.225 37.914C67.6881 38.4259 67.0549 38.822 66.3636 39.0783C65.6724 39.3347 64.9373 39.4461 64.2026 39.4058ZM64.2026 31.1161C63.8413 31.1115 63.4829 31.1828 63.15 31.3257C62.8171 31.4686 62.5168 31.68 62.268 31.9465C62.0191 32.2131 61.8271 32.5291 61.7039 32.8747C61.5807 33.2203 61.5291 33.5882 61.5522 33.9551C61.5291 34.322 61.5807 34.6898 61.7039 35.0355C61.8271 35.3811 62.0191 35.6971 62.268 35.9636C62.5168 36.2302 62.8171 36.4416 63.15 36.5845C63.4829 36.7274 63.8413 36.7987 64.2026 36.794C64.5598 36.793 64.9129 36.7173 65.2402 36.5716C65.5675 36.426 65.8619 36.2135 66.1051 35.9473C66.3484 35.6812 66.5354 35.367 66.6544 35.0243C66.7735 34.6816 66.822 34.3177 66.7972 33.9551C66.822 33.5925 66.7735 33.2286 66.6544 32.8859C66.5354 32.5432 66.3484 32.229 66.1051 31.9628C65.8619 31.6967 65.5675 31.4842 65.2402 31.3385C64.9129 31.1929 64.5598 31.1172 64.2026 31.1161ZM81.1375 39.0652V32.5214C81.1375 29.8528 79.882 28.4475 77.4408 28.4475C76.8347 28.4324 76.2326 28.5516 75.6763 28.7967C75.1199 29.0418 74.6225 29.407 74.2185 29.867V28.8024C74.2153 28.7658 74.1996 28.7315 74.1741 28.7056C74.1486 28.6796 74.1149 28.6636 74.079 28.6604H71.4146C71.3787 28.6636 71.3449 28.6796 71.3194 28.7056C71.2939 28.7315 71.2782 28.7658 71.2751 28.8024V39.0652C71.2782 39.1017 71.2939 39.1361 71.3194 39.162C71.3449 39.188 71.3787 39.204 71.4146 39.2072H74.2046C74.2405 39.204 74.2742 39.188 74.2997 39.162C74.3252 39.1361 74.3409 39.1017 74.344 39.0652V34.4803C74.3471 34.0554 74.3938 33.6319 74.4835 33.2169C74.625 32.6883 74.9343 32.2222 75.3632 31.891C75.7921 31.5598 76.3166 31.3822 76.855 31.3858C77.7757 31.3858 78.1244 31.8117 78.1244 33.075V39.122C78.1276 39.1586 78.1433 39.1928 78.1688 39.2188C78.1943 39.2447 78.228 39.2607 78.2639 39.2639H80.9841C81.1236 39.2639 81.1236 39.2639 81.1236 39.193M14.1649 39.3349H11.375C11.339 39.3317 11.3053 39.3157 11.2798 39.2897C11.2543 39.2638 11.2386 39.2295 11.2355 39.193C11.2355 35.9565 10.9565 32.2943 10.8868 31.1729C9.78426 32.7071 8.84879 34.3587 8.09682 36.0985C8.09682 36.0985 8.09685 36.0985 7.95736 36.0985H6.3531H6.21364C5.47764 34.3505 4.54116 32.6971 3.4237 31.1729C3.4237 32.2943 3.07495 35.9565 3.07495 39.193C3.07181 39.2295 3.05602 39.2638 3.03051 39.2897C3.005 39.3157 2.97126 39.3317 2.93532 39.3349H0.145374C0.109433 39.3317 0.0758666 39.3157 0.0503554 39.2897C0.0248442 39.2638 0.00905382 39.2295 0.00591111 39.193C-0.0507129 34.8066 0.299583 30.4246 1.05214 26.1053C1.05561 26.0702 1.07181 26.0376 1.09761 26.014C1.1234 25.9904 1.1569 25.9774 1.1916 25.9776H3.43766C3.43766 25.9776 3.43762 25.9776 3.57712 25.9776C4.98312 27.5503 6.18336 29.3012 7.14816 31.1871C8.0911 29.2879 9.29347 27.534 10.7194 25.9776C10.765 25.9649 10.8132 25.9649 10.8588 25.9776H13.0908C13.1255 25.9774 13.159 25.9904 13.1848 26.014C13.2105 26.0376 13.2268 26.0702 13.2302 26.1053C13.9884 30.4241 14.3434 34.8062 14.2904 39.193C14.2904 39.2639 14.151 39.3349 14.0673 39.3349M31.5741 39.193V35.1049C31.5611 34.581 31.6318 34.0584 31.7834 33.5576C31.9194 33.0185 32.2275 32.5406 32.6592 32.1989C33.0909 31.8572 33.6218 31.6711 34.1688 31.6697H34.7966C34.8106 31.6235 34.8106 31.574 34.7966 31.5277V28.7881C34.7935 28.7516 34.7777 28.7173 34.7522 28.6914C34.7267 28.6654 34.6931 28.6494 34.6571 28.6462H34.2386C33.683 28.6436 33.1358 28.7841 32.648 29.0546C32.1601 29.3252 31.7476 29.7169 31.4486 30.1934V28.8024C31.4455 28.7658 31.4297 28.7315 31.4042 28.7056C31.3787 28.6796 31.3451 28.6636 31.3092 28.6604H28.6447C28.6088 28.6636 28.5751 28.6796 28.5495 28.7056C28.524 28.7315 28.5084 28.7658 28.5053 28.8024V39.0652C28.5084 39.1017 28.524 39.1361 28.5495 39.162C28.5751 39.188 28.6088 39.204 28.6447 39.2072H31.4347C31.4347 39.2072 31.4347 39.2071 31.4347 39.0652M39.0651 39.2072H36.2752C36.2392 39.204 36.2057 39.188 36.1802 39.162C36.1547 39.1361 36.1389 39.1017 36.1357 39.0652V28.8024C36.1389 28.7658 36.1547 28.7315 36.1802 28.7056C36.2057 28.6796 36.2392 28.6636 36.2752 28.6604H38.9396C38.9756 28.6636 39.0093 28.6796 39.0348 28.7056C39.0603 28.7315 39.076 28.7658 39.0791 28.8024V30.0657C39.3896 29.6006 39.8048 29.2175 40.29 28.9484C40.7752 28.6793 41.3166 28.5319 41.869 28.5184H42.2876C42.3235 28.5216 42.3571 28.5376 42.3826 28.5636C42.4081 28.5895 42.4239 28.6239 42.4271 28.6604V31.4C42.4271 31.4 42.4271 31.4 42.4271 31.5419C42.418 31.5514 42.4072 31.5589 42.3952 31.564C42.3832 31.5692 42.3702 31.5717 42.3572 31.5717C42.3443 31.5717 42.3314 31.5692 42.3194 31.564C42.3075 31.5589 42.2967 31.5514 42.2876 31.5419H41.7994C41.25 31.5333 40.714 31.7156 40.2803 32.0589C39.8465 32.4022 39.5409 32.8859 39.4139 33.4299C39.3298 33.8984 39.2832 34.3731 39.2744 34.8494V38.9375C39.2744 39.0794 39.2047 39.1503 39.1349 39.1503M57.1859 35.843C57.1859 38.0148 55.512 39.2923 52.7778 39.2923C51.2285 39.2567 49.7317 38.7141 48.5091 37.7451C48.5091 37.7451 48.5091 37.7451 48.5091 37.6032L49.7088 35.701C49.7088 35.701 49.7785 35.701 49.8482 35.701C50.7515 36.4034 51.8504 36.7961 52.9869 36.8225C53.6984 36.8225 54.1169 36.6095 54.1169 36.1979V36.1268C54.1169 35.63 53.6287 35.3461 52.5685 35.0622C52.429 35.0622 52.2895 35.0623 52.15 34.9345C50.3365 34.4377 48.7882 33.657 48.7882 31.6271C48.7882 29.5972 50.4064 28.3197 52.9731 28.3197C54.2472 28.3386 55.4971 28.6749 56.6139 29.2991C56.6139 29.2991 56.6139 29.2992 56.6139 29.4411V29.5121L55.4979 31.4852C55.4979 31.4852 55.4282 31.4852 55.3585 31.4852C54.6094 31.0377 53.7695 30.7707 52.9033 30.7045C52.2756 30.7045 51.8571 30.9884 51.8571 31.4142C51.8571 31.8969 52.4848 32.1098 53.531 32.4646C53.6844 32.5356 53.7542 32.5356 53.8937 32.6066C55.4979 33.0324 57.1719 33.8699 57.1719 35.843M87.6242 32.5356C87.4847 32.4646 87.415 32.4647 87.2755 32.3937C86.2292 32.0388 85.6015 31.84 85.6015 31.3432C85.6015 30.9173 86.0897 30.6335 86.6477 30.6335C87.5177 30.6787 88.3623 30.9473 89.1029 31.4142H89.1726C89.1726 31.4142 89.1726 31.4142 89.3121 31.4142L90.428 29.4411C90.428 29.4411 90.428 29.4411 90.3583 29.2991C89.2441 28.6682 87.9924 28.3315 86.7174 28.3197C84.1925 28.3197 82.5325 29.5831 82.5325 31.6271V31.6413C82.5325 33.6712 84.1367 34.4803 85.8944 34.9487C86.0339 34.9487 86.1734 34.9487 86.3129 35.0764C87.4289 35.4313 87.8474 35.6442 87.8474 36.141V36.212C87.8474 36.6237 87.4289 36.8366 86.7314 36.8366C85.5927 36.7991 84.4925 36.4078 83.5787 35.7152C83.5787 35.7152 83.5788 35.7152 83.4393 35.7152L82.2535 37.6174C82.2535 37.6883 82.2535 37.6883 82.3232 37.7593C83.5491 38.7221 85.0438 39.2639 86.5919 39.3065C89.3818 39.3065 91 38.1 91 35.9282V35.8998C91 33.9977 89.3958 33.1601 87.7079 32.5923M47.4629 24.9272C47.4629 25.1782 47.4142 25.4266 47.3193 25.6583C47.2245 25.89 47.0855 26.1004 46.9105 26.2772C46.7354 26.454 46.5277 26.5938 46.2993 26.6886C46.0709 26.7833 45.8264 26.8311 45.5797 26.8293C45.3319 26.833 45.0859 26.7866 44.8558 26.6927C44.6258 26.5988 44.4165 26.4593 44.2399 26.2823C44.0634 26.1053 43.9232 25.8944 43.8275 25.6617C43.7318 25.4291 43.6825 25.1794 43.6826 24.9272C43.6825 24.675 43.7318 24.4253 43.8275 24.1927C43.9232 23.96 44.0634 23.749 44.2399 23.572C44.4165 23.395 44.6258 23.2555 44.8558 23.1616C45.0859 23.0677 45.3319 23.0213 45.5797 23.0251C45.8279 23.0173 46.0751 23.0611 46.3061 23.1537C46.5372 23.2464 46.7472 23.3859 46.9234 23.5639C47.0997 23.7419 47.2383 23.9547 47.3311 24.189C47.4239 24.4234 47.4687 24.6746 47.4629 24.9272Z" fill="#008031"/>
<path d="M43.7081 17.1302C43.7082 17.375 43.6597 17.6173 43.5655 17.8431C43.4713 18.0689 43.3331 18.2737 43.1592 18.4454C42.9853 18.6172 42.7791 18.7526 42.5526 18.8437C42.326 18.9348 42.0838 18.9798 41.8397 18.9761C41.3525 18.969 40.887 18.7726 40.5412 18.4284C40.1953 18.0841 39.996 17.6188 39.9853 17.1302C39.989 16.6394 40.186 16.1699 40.5333 15.8242C40.8807 15.4784 41.3503 15.2843 41.8397 15.2843C42.3283 15.2913 42.7953 15.4873 43.1434 15.8312C43.4915 16.1751 43.6938 16.6404 43.7081 17.1302ZM52.0743 9.55098C52.0744 9.79576 52.0259 10.0381 51.9317 10.2639C51.8375 10.4897 51.6993 10.6945 51.5254 10.8662C51.3515 11.038 51.1453 11.1734 50.9188 11.2645C50.6922 11.3556 50.45 11.4006 50.2059 11.3969C49.9624 11.3987 49.7208 11.3524 49.4951 11.2606C49.2694 11.1689 49.064 11.0335 48.8905 10.8621C48.717 10.6906 48.5788 10.4866 48.4839 10.2617C48.389 10.0367 48.3393 9.79522 48.3375 9.55098C48.3518 9.06115 48.554 8.59576 48.9021 8.25186C49.2502 7.90797 49.7173 7.7121 50.2059 7.70511C50.4495 7.70326 50.691 7.74956 50.9167 7.84133C51.1424 7.93309 51.3478 8.06859 51.5213 8.24C51.6948 8.4114 51.8331 8.61541 51.928 8.84035C52.0228 9.0653 52.0725 9.30674 52.0743 9.55098ZM47.682 3.95745C47.6511 4.74438 47.4356 5.51291 47.0528 6.20055C46.67 6.88818 46.1307 7.47554 45.479 7.9149C44.8273 7.47554 44.288 6.88818 43.9052 6.20055C43.5224 5.51291 43.3069 4.74438 43.276 3.95745C43.3069 3.17052 43.5224 2.40198 43.9052 1.71435C44.288 1.02672 44.8273 0.439357 45.479 0C46.1194 0.450939 46.65 1.04102 47.0315 1.72621C47.4129 2.41141 47.6353 3.17409 47.682 3.95745ZM38.2284 7.77501C38.0877 8.54786 38.1277 9.34299 38.3455 10.0977C38.5632 10.8523 38.9527 11.546 39.4831 12.124C40.0748 12.65 40.7766 13.036 41.5367 13.2538C42.2969 13.4716 43.0961 13.5156 43.8754 13.3825C44.0161 12.6097 43.9761 11.8146 43.7583 11.06C43.5406 10.3053 43.151 9.61166 42.6205 9.03359C42.031 8.50419 41.3296 8.11583 40.5688 7.89783C39.8079 7.67982 39.0077 7.63783 38.2284 7.77501ZM35.2863 11.9702C35.9509 12.3912 36.5086 12.9618 36.9152 13.6365C37.3218 14.3113 37.5661 15.0718 37.6287 15.8577C36.9061 16.1948 36.1168 16.3636 35.32 16.3515C34.5231 16.3393 33.7393 16.1467 33.0272 15.7878C32.3659 15.3644 31.8115 14.793 31.4075 14.1184C31.0035 13.4439 30.7608 12.6847 30.6987 11.9003C31.4195 11.5654 32.2061 11.3978 33.0003 11.4099C33.7946 11.422 34.576 11.6135 35.2863 11.9702ZM34.1567 20.4724C34.3585 21.2369 34.7343 21.9441 35.2544 22.5385C35.7746 23.133 36.425 23.5985 37.1547 23.8984C37.9159 24.1267 38.7186 24.1798 39.5032 24.0539C40.2878 23.928 41.0341 23.6263 41.6864 23.1712C41.4846 22.4067 41.1088 21.6995 40.5887 21.1051C40.0685 20.5106 39.4181 20.0451 38.6884 19.7452C37.9279 19.5107 37.124 19.4543 36.3383 19.5804C35.5527 19.7064 34.8063 20.0116 34.1567 20.4724ZM50.2059 17.6756C49.844 18.3722 49.3233 18.9734 48.6861 19.4302C48.0489 19.887 47.3131 20.1866 46.5387 20.3046C46.1388 19.6363 45.9014 18.883 45.8456 18.1056C45.7899 17.3282 45.9175 16.5485 46.2181 15.8297C46.5787 15.1335 47.097 14.5318 47.7314 14.0729C48.3658 13.6139 49.0988 13.3104 49.8713 13.1867C50.2706 13.8576 50.5087 14.6125 50.5668 15.3916C50.6249 16.1707 50.5013 16.9526 50.2059 17.6756ZM60.3011 11.8304C59.5809 11.4935 58.794 11.3248 57.9994 11.3369C57.2048 11.3491 56.4234 11.5416 55.7137 11.9003C55.0501 12.3212 54.4939 12.8921 54.0895 13.5671C53.6852 14.2421 53.444 15.0026 53.385 15.7878C54.1052 16.1246 54.8922 16.2933 55.6868 16.2812C56.4814 16.2691 57.2629 16.0765 57.9726 15.7179C58.6361 15.297 59.1923 14.7261 59.5966 14.0511C60.001 13.3761 60.2422 12.6156 60.3011 11.8304ZM53.9707 23.8285C53.2116 24.0556 52.4112 24.1081 51.6291 23.9822C50.8469 23.8563 50.1031 23.5552 49.4529 23.1013C49.6547 22.3368 50.0305 21.6296 50.5506 21.0352C51.0708 20.4407 51.7212 19.9752 52.4508 19.6753C53.2098 19.4472 54.0105 19.3942 54.7928 19.5201C55.5751 19.646 56.3189 19.9476 56.9686 20.4025C56.7572 21.1625 56.378 21.8651 55.8591 22.4582C55.3401 23.0513 54.6948 23.5196 53.9707 23.8285Z" fill="#FCBC00"/>
</svg>
