<svg id="Layer_1" xmlns="http://www.w3.org/2000/svg" viewBox="0 0 283.5 80.2"><style>.st0{fill:#ee1c2e}.st1{fill:#00539f}</style><g id="XMLID_110_"><path id="XMLID_71_" class="st0" d="M2.3 1.1h57.6v12.5c-4.1-3.4-12.8-4.8-22-4.8V43c0 5.1.4 6.5 2.4 9.1H21.9c2-2.6 2.4-4 2.4-9.1V8.8c-9.3 0-17.9 1.4-22 4.8V1.1zm85.2 43.3c5.9 0 15.8-1.4 19.6-4.8v12.5H65.2c2-2.4 2.4-4 2.4-8.9V10c0-4.9-.4-6.5-2.4-8.9H105v12.5c-3.9-3.4-13.7-4.8-19.6-4.8h-4.7v13.6h3.4c3.4 0 8.5-.1 12-1.4v10.1c-3.4-1.2-8.6-1.4-12-1.4h-3.4v14.7h6.8zm55-23.7c10 1.4 18.3 4.9 18.3 15.8 0 12.8-12.1 16.8-25.2 16.8-9.1-.1-16.8-.9-22.5-3.2V38.6c8.1 5.3 16.4 6.9 22.5 6.9 6.3 0 12.2-1.5 12.2-6.3s-5.4-6-16.5-7.7c-9.6-1.5-18.2-5.5-18.3-15C113 3.9 125 0 136.5 0c7.4 0 14.7.9 21.3 3.1v12.3c-5.5-4.9-13.8-7.7-21.9-7.7-5.5 0-10.6 1.8-10.6 5.8 0 5.2 7.7 5.9 17.2 7.2zm57-20.7c6 0 11.2.7 15.3 1.8v12.7c-4.1-4.2-8.9-6.8-15.2-6.8-11.6 0-19.3 8.1-19.3 18.9s7.7 18.9 19.3 18.9c6.3 0 11.2-2.6 15.2-6.8v12.7c-4.2 1.1-9.3 1.9-15.3 1.9-20.1 0-34.6-10-34.6-26.7S179.4 0 199.5 0z"/><path id="XMLID_68_" class="st0" d="M250.9 0c-20.7 0-32.5 12-32.5 26.6 0 14.5 11.8 26.6 32.5 26.6s32.5-12.1 32.5-26.6C283.5 12 271.6 0 250.9 0zm0 45.5c-10.4 0-17.2-8.6-17.2-18.9 0-10.4 6.8-18.9 17.2-18.9 10.4 0 17.2 8.5 17.2 18.9 0 10.3-6.7 18.9-17.2 18.9z"/><path id="XMLID_67_" class="st1" d="M248.1 66H283c.1.1.1.2 0 .3 0 0-.1 0-.1.1h-.1c-4 1.8-9.4 7.5-9.4 7.5-4 3.8-7.1 6.3-13.5 6.3h-33.1c-.1 0-.1-.1-.2-.2 0-.1 0-.1.1-.2l.1-.1c3.6-2 9.1-7.7 9.1-7.7 2.1-2.5 6.5-6 12.2-6"/><path id="XMLID_66_" class="st1" d="M191.5 66h34.9c.1.1.1.2 0 .3 0 0-.1 0-.1.1h-.1c-4 1.8-9.4 7.5-9.4 7.5-4 3.8-7.1 6.3-13.5 6.3H170c-.1 0-.1-.1-.2-.2 0-.1 0-.1.1-.2l.1-.1c3.6-2 9.1-7.7 9.1-7.7 2.3-2.5 6.7-6 12.4-6"/><path id="XMLID_65_" class="st1" d="M134.8 66h34.9c.1.1.1.2 0 .3 0 0-.1 0-.1.1h-.1c-4 1.8-9.4 7.5-9.4 7.5-4 3.8-7.1 6.3-13.5 6.3h-33.1c-.1 0-.1-.1-.2-.2 0-.1 0-.1.1-.2l.1-.1c3.6-2 9.1-7.7 9.1-7.7 2.1-2.5 6.6-6 12.2-6"/><path id="XMLID_58_" class="st1" d="M78.2 66h34.9c.1.1.1.2 0 .3 0 0-.1 0-.1.1h-.1c-4 1.8-9.4 7.5-9.4 7.5-4 3.8-7.1 6.3-13.5 6.3H56.8c-.1 0-.1-.1-.2-.2 0-.1 0-.1.1-.2l.1-.1c3.6-2 9.1-7.7 9.1-7.7 2.2-2.5 6.6-6 12.3-6"/><path id="XMLID_57_" class="st1" d="M21.6 66h34.9c.1.1.1.2 0 .3 0 0-.1 0-.1.1h-.1c-4 1.8-9.4 7.5-9.4 7.5-4 3.8-7.1 6.3-13.5 6.3H.2c-.1 0-.2-.1-.2-.2s0-.1.1-.2l.1-.1c3.6-2 9.1-7.7 9.1-7.7 2.2-2.5 6.6-6 12.3-6"/></g></svg>